# xmcd
#
# Track frame offsets:
#       150
#       15153
#       33101
#       46950
#       62176
#       79197
#       82635
#       96858
#       112222
#       132309
#
# Disc length: 1943 seconds
#
# Revision: 0
# Processed by: cddbd v1.4PL0 Copyright (c) Steve Scherf et al.
# Submitted via: WhereIsIt 3.26
#
DISCID=7107950a
DTITLE=Alabama - Born Country
DYEAR=1900
DGENRE=
TTITLE0=Born Country
TTITLE1=Dixieland Delight
TTITLE2=Tennessee River
TTITLE3=Alabama Sky
TTITLE4=Country Side Of Life
TTITLE5=Green River
TTITLE6=Lousisiana Moon
TTITLE7=If You're Gonna Play In Texas (You otta Have a Fiddle in the Band)
TTITLE8=Carolina Mountain Dewe
TTITLE9=You Can't Take the Country Out of Me
EXTD=
EXTT0=
EXTT1=
EXTT2=
EXTT3=
EXTT4=
EXTT5=
EXTT6=
EXTT7=
EXTT8=
EXTT9=
PLAYORDER=
